<?xml version="1.0" encoding="UTF-8"?> <svg xmlns="http://www.w3.org/2000/svg" width="42" height="42" viewBox="0 0 42 42" fill="none"><g clip-path="url(#clip0_106_1770)"><path opacity="0.2" d="M27.5625 25.912C26.8245 25.311 26.2127 24.5699 25.7622 23.7314C25.3117 22.893 25.0315 21.9737 24.9377 21.0266C24.8439 20.0794 24.9382 19.123 25.2155 18.2125C25.4926 17.302 25.9472 16.4552 26.5529 15.7211C27.1586 14.9869 27.9035 14.3797 28.7448 13.9345C29.586 13.4893 30.507 13.2149 31.4547 13.127C32.4025 13.0391 33.3582 13.1395 34.267 13.4224C35.1758 13.7053 36.0196 14.1652 36.75 14.7755V9.1875C36.75 8.8394 36.6117 8.50556 36.3656 8.25942C36.1194 8.01328 35.7856 7.875 35.4375 7.875H6.5625C6.2144 7.875 5.88056 8.01328 5.63442 8.25942C5.38828 8.50556 5.25 8.8394 5.25 9.1875V30.1875C5.25 30.5356 5.38828 30.8694 5.63442 31.1156C5.88056 31.3617 6.2144 31.5 6.5625 31.5H27.5625V25.912Z" fill="#00B401"></path><path d="M11.8125 22.3125H19.6875" stroke="#00B401" stroke-width="2" stroke-linecap="round" stroke-linejoin="round"></path><path d="M11.8125 17.0625H19.6875" stroke="#00B401" stroke-width="2" stroke-linecap="round" stroke-linejoin="round"></path><path d="M32.1562 27.5625C36.1431 27.5625 39.375 24.3306 39.375 20.3438C39.375 16.3569 36.1431 13.125 32.1562 13.125C28.1694 13.125 24.9375 16.3569 24.9375 20.3438C24.9375 24.3306 28.1694 27.5625 32.1562 27.5625Z" stroke="#00B401" stroke-width="2" stroke-linecap="round" stroke-linejoin="round"></path><path d="M27.5625 31.5H6.5625C6.2144 31.5 5.88056 31.3617 5.63442 31.1156C5.38828 30.8694 5.25 30.5356 5.25 30.1875V9.1875C5.25 8.8394 5.38828 8.50556 5.63442 8.25942C5.88056 8.01328 6.2144 7.875 6.5625 7.875H35.4375C35.7856 7.875 36.1194 8.01328 36.3656 8.25942C36.6117 8.50556 36.75 8.8394 36.75 9.1875V14.7755" stroke="#00B401" stroke-width="2" stroke-linecap="round" stroke-linejoin="round"></path><path d="M27.5625 25.9121V36.7501L32.1562 34.1251L36.75 36.7501V25.9121" stroke="#00B401" stroke-width="2" stroke-linecap="round" stroke-linejoin="round"></path></g><defs><clipPath id="clip0_106_1770"><rect width="42" height="42" fill="white"></rect></clipPath></defs></svg> 